<svg xmlns="http://www.w3.org/2000/svg" width="100px" height="100px" viewBox="0 0 250 250" preserveAspectRatio="none"><path d="M80.77,246.34a2.07,2.07,0,0,1-1.09-3.83l12-7.47L74,245.24a2.07,2.07,0,0,1-2.13-3.55l11.83-7.34-14,8.08a2.07,2.07,0,0,1-2.16-3.53l58-37.43L66.28,235.68a2.07,2.07,0,0,1-2.15-3.54l51.08-32.49L65.49,228.36a2.07,2.07,0,0,1-2.15-3.54l59.27-38-57.8,33.37a2.07,2.07,0,0,1-2.13-3.55l31.78-19.82L64.31,214.23a2.07,2.07,0,0,1-2.16-3.54l67.28-43.48-65.87,38a2.07,2.07,0,1,1-2.12-3.56l20.78-12.86-19.08,11A2.08,2.08,0,0,1,61,196.29l57.2-36.35L62.47,192.13a2.08,2.08,0,0,1-2.14-3.56l43.1-27-41.5,23.95A2.08,2.08,0,0,1,59.78,182l48.76-30.67-47.2,27.26A2.07,2.07,0,0,1,59.21,175l24.52-15.15L60.88,173.05a2.08,2.08,0,0,1-2.12-3.57l10.87-6.66-9.16,5.25a2.08,2.08,0,0,1-2.15-3.55l58.32-36.91-56.82,32.8a2.08,2.08,0,0,1-2.13-3.57l10.83-6.64-9.13,5.26a2.07,2.07,0,0,1-2.12-3.56l1.4-.85a2.08,2.08,0,0,1-1.78-3.74l11.27-6.9-9.55,5.52a2.07,2.07,0,0,1-2.12-3.56L86.26,124l-28.11,16.3A2.08,2.08,0,0,1,56,136.73L126.18,92,57.43,131.67a2.08,2.08,0,0,1-2.13-3.56l40.24-25L56.91,125.42a2.08,2.08,0,0,1-2.14-3.56l33.36-20.77L56.4,119.4a2.07,2.07,0,0,1-2.16-3.52l57.34-37.22L55.7,110.92a2.07,2.07,0,0,1-2.15-3.53l40.1-25.83L55.11,103.8a2.07,2.07,0,0,1-2.79-.71,2.09,2.09,0,0,1,.62-2.82l35.26-23L54.52,96.72a2.07,2.07,0,0,1-2.21-3.5L91.53,66.49,53.82,88.26a2.08,2.08,0,0,1-2.2-3.51l25-16.93L53.24,81.32A2.08,2.08,0,0,1,51,77.81L69.47,65.13,52.7,74.81a2.07,2.07,0,0,1-2.29-3.45L70.9,56,52,66.86a2.08,2.08,0,0,1-2.3-3.44L61,54.83l-9.47,5.46a2.07,2.07,0,0,1-2.29-3.44l2-1.54-.15.08A2.07,2.07,0,0,1,48.72,52l1.36-1.14a2.07,2.07,0,0,1-1.89-3.5l1.12-1.1a2.08,2.08,0,0,1-2-2.66l1-3.44a2,2,0,0,1-.83-.79,2.08,2.08,0,0,1,.75-2.83l2.08-1.2a2.08,2.08,0,0,1,3,2.38l-.61,2.08,7.74-4.46A2.07,2.07,0,0,1,63,38.61l-.28.28,6.16-3.56a2.08,2.08,0,0,1,2.36,3.39l-.89.74,7.17-4.15a2.07,2.07,0,0,1,2.29,3.45l-2,1.55,8.67-5a2.08,2.08,0,0,1,2.3,3.44L77.53,47.34,98.41,35.29a2.07,2.07,0,0,1,2.28,3.45L80.22,54.13l32.67-18.86a2.08,2.08,0,0,1,2.21,3.51L96.66,51.45l28.05-16.17a2.07,2.07,0,0,1,2.2,3.51l-25,16.91,35.42-20.45a2.07,2.07,0,0,1,2.2,3.51L100.3,65.52l52.44-30.28a2.07,2.07,0,0,1,2.17,3.53l-35.26,23L165.6,35.21a2.07,2.07,0,0,1,2.15,3.53L127.68,64.58l50.85-29.36a2.07,2.07,0,0,1,2.17,3.53L123.36,76,194,35.21a2.08,2.08,0,0,1,2.14,3.56L162.68,59.56l42.2-24.36A2.07,2.07,0,0,1,207,38.76l-40.23,25,38.9-22.46a2.07,2.07,0,0,1,2.15,3.54L137.62,89.61l67.47-39a2.07,2.07,0,0,1,2.12,3.56L177.44,72.6,204.56,57a2.07,2.07,0,0,1,2.12,3.56l-11.31,6.93,8.74-5A2.08,2.08,0,0,1,206.23,66l-2.11,1.28A2.07,2.07,0,0,1,205.81,71l-10.76,6.6,8.19-4.73a2.07,2.07,0,0,1,2.14,3.55L147,113.32l55.49-32a2.08,2.08,0,0,1,2.13,3.56l-10.81,6.64,8.23-4.76a2.08,2.08,0,0,1,2.13,3.57l-24.58,15.18L201.57,92.8a2.08,2.08,0,0,1,2.15,3.55L155,127l45.91-26.51a2.07,2.07,0,0,1,2.14,3.55l-43.16,27,40.42-23.33a2.07,2.07,0,0,1,2.15,3.54L145.3,147.61l54.34-31.36a2.08,2.08,0,0,1,2.12,3.57l-20.87,12.9,18.25-10.54a2.07,2.07,0,0,1,2.16,3.54L134,169.18l64.27-37.11a2.07,2.07,0,0,1,2.14,3.55l-31.79,19.82,29.11-16.8a2.07,2.07,0,0,1,2.15,3.54l-59.28,38L197,147.64a2.07,2.07,0,0,1,2.14,3.54L148.1,183.65l48.23-27.84a2.08,2.08,0,0,1,2.16,3.54l-58.07,37.44L195.56,165a2.07,2.07,0,0,1,2.13,3.55l-11.78,7.31,9.19-5.3a2.07,2.07,0,0,1,2.13,3.55l-11.94,7.47,9.34-5.39a2.07,2.07,0,0,1,2.15,3.54L174.28,194l19.82-11.44a2.07,2.07,0,0,1,2.2,3.51l-43.13,29.57,40.12-23.16a2.07,2.07,0,0,1,2.19,3.51L169.3,213.74l23.33-13.48a2.08,2.08,0,0,1,2.25,3.48L169.63,222l22.27-12.86a2.07,2.07,0,0,1,2.2,3.51l-2.46,1.66a2.08,2.08,0,0,1,2.13,3.53l-12.41,9.66,9.45-5.46a2.08,2.08,0,0,1,2.31,3.43l-2.84,2.22.06,0a2.08,2.08,0,0,1,2.69,3.05l-5,6.56a2.09,2.09,0,0,1,2.23,1,2.06,2.06,0,0,1-.76,2.82l-8.19,4.74a2.09,2.09,0,0,1-2.58-.43,2.07,2.07,0,0,1-.11-2.61l4.84-6.36-16.8,9.68a2.07,2.07,0,0,1-2.31-3.43l2.82-2.21-9.77,5.64a2.07,2.07,0,0,1-2.31-3.43L167.53,233l-22.69,13.1a2.08,2.08,0,0,1-2.2-3.51L145,241l-8.84,5.09a2.08,2.08,0,0,1-2.25-3.48l25.23-18.18-37.52,21.66a2.08,2.08,0,0,1-2.2-3.51l26.23-17.78-36.88,21.29a2.07,2.07,0,0,1-2.21-3.5L149.67,213,92.38,246.05a2.07,2.07,0,0,1-2.15-3.54l22.51-14.3L81.81,246.05a2,2,0,0,1-1,.29Z" fill="#8b93a2"/><path d="M99.57,26.62a2.05,2.05,0,0,1-1.95-1.35,2.09,2.09,0,0,1,.6-2.3l7-6-5.09,2.94a2.07,2.07,0,0,1-2.84-2.82l4.23-7.49-.17.09A2.07,2.07,0,0,1,99.32,6.1l6.73-3.9a2.06,2.06,0,0,1,2.49.32A2.09,2.09,0,0,1,108.89,5l-4.23,7.51,18-10.37A2.08,2.08,0,0,1,125,5.52l-7,6,16.26-9.38a2.08,2.08,0,0,1,2.41,3.35l-7.87,6.93L146.64,2.15a2.07,2.07,0,0,1,2.41,3.35l-7.67,6.73,12.34-7.12a2.07,2.07,0,0,1,2.61,3.15l-7.14,8.29,6.74-3.89a2.08,2.08,0,0,1,2.6,3.17l-1.29,1.46a2.08,2.08,0,0,1,.83,3.86l-8.88,5.09a2.07,2.07,0,0,1-2.59-3.16l.46-.53-6.44,3.71A2.07,2.07,0,0,1,138,23.12l7.16-8.3L125.33,26.29a2.07,2.07,0,0,1-2.41-3.35l7.68-6.75L113.05,26.32A2.08,2.08,0,0,1,110.64,23L118.49,16,100.61,26.35a2,2,0,0,1-1,.27Z" fill="#656e7a"/><path d="M166,47.24a2.07,2.07,0,0,1-1.24-3.73l3-2.21L158,47a2.08,2.08,0,0,1-2.28-3.46l4.91-3.66L148.26,47a2.07,2.07,0,0,1-2.36-3.39l11-9.16L135.16,47a2.08,2.08,0,0,1-2.37-3.39l11-9.21L122,47a2.07,2.07,0,0,1-2.34-3.41l9.64-7.74L110,47a2.07,2.07,0,0,1-2.34-3.41l10-8.13L97.66,47a2.07,2.07,0,0,1-2.32-3.42l8.58-6.76L86.29,47a2.07,2.07,0,0,1-2.37-3.38l11.4-9.63L72.78,47a2.07,2.07,0,0,1-2.35-3.4l10.16-8.3L60.36,47a2.08,2.08,0,0,1-2.43-3.32L70.44,32.52,45.4,47a2.07,2.07,0,0,1-2.29-3.44L50,38.24,38.47,44.88a2.08,2.08,0,0,1-2.34-3.41l7.29-5.87-5.48,3.16a2.08,2.08,0,0,1-2.62-3.14l6-7a2.07,2.07,0,0,1-1.52-3.81l9.58-5.53A2.07,2.07,0,0,1,52,22.36l-5.81,6.87L64.34,18.74a2.08,2.08,0,0,1,2.34,3.41L59.39,28,75.5,18.74a2.07,2.07,0,0,1,2.29,3.44L70.9,27.45,86,18.74a2.08,2.08,0,0,1,2.42,3.35L75.92,33.19l25-14.45a2.08,2.08,0,0,1,2.35,3.4l-10.17,8.3,20.23-11.7a2.08,2.08,0,0,1,2.38,3.38l-11.41,9.63,22.55-13a2.08,2.08,0,0,1,2.32,3.43l-8.57,6.73,17.62-10.16a2.08,2.08,0,0,1,2.35,3.41l-10.05,8.13,20-11.54a2.07,2.07,0,0,1,2.33,3.4l-9.63,7.74,19.32-11.14A2.08,2.08,0,0,1,165,22.13l-11,9.2,21.83-12.59a2.08,2.08,0,0,1,2.37,3.39l-11,9.14,21.73-12.53a2.08,2.08,0,0,1,2.28,3.46l-4.92,3.67,12.35-7.13a2.08,2.08,0,0,1,2.27,3.47l-3,2.22,8.54-4.93a2.07,2.07,0,0,1,2.3,3.44l-5.81,4.44,8.87-5.12a2.07,2.07,0,0,1,2.35,3.4l-6,4.91,7.35-4.24a2.07,2.07,0,0,1,2.42,3.32l-4.46,4.07,4.14-2.39A2.07,2.07,0,0,1,220,34.6l-1.07,1.06a2.07,2.07,0,0,1,1.28,3.85L207.32,47a2.07,2.07,0,0,1-2.49-3.27l.6-.6L198.73,47a2.07,2.07,0,0,1-2.43-3.32l4.47-4.06L188,47a2.08,2.08,0,0,1-2.35-3.4l6-4.9L177.21,47a2.07,2.07,0,0,1-2.3-3.44l5.8-4.44L167,47a2,2,0,0,1-1,.29Z" fill="#798291"/><path d="M120.69,217.16a2.07,2.07,0,0,1-1.55-3.45l3-3.39-4.85,2.79a2.07,2.07,0,0,1-2.35-3.39l1.86-1.53a2.07,2.07,0,0,1-2.24-3.44l14.1-12.25L117.4,199a2.07,2.07,0,0,1-2.34-3.4l19.72-16.15-16.92,9.76a2.07,2.07,0,0,1-2.29-3.45l19.33-14.49-16.66,9.62a2.08,2.08,0,0,1-2.25-3.48l16.45-11.87-13.86,8a2.07,2.07,0,0,1-2.31-3.43l16-12.41L119,165.36a2.07,2.07,0,0,1-2.39-3.36l9.68-8.34-7,4.06a2.08,2.08,0,0,1-2.49-3.28l6.08-5.95-10.93,6.3a2.07,2.07,0,0,1-2.33-3.41l2.78-2.2-9.72,5.61a2.07,2.07,0,0,1-2.28-3.45l6.39-4.77-14.25,8.22a2.07,2.07,0,0,1-2.24-3.48l7.65-5.39-9.77,5.64a2.07,2.07,0,0,1-2.21-3.5l7.6-5.25-3.15,1.81a2.07,2.07,0,0,1-2.22-3.49l9.38-6.59-1.25.71A2.07,2.07,0,0,1,94,131.78l9.61-7-1.2.69a2.06,2.06,0,0,1-2.72-.66,2.08,2.08,0,0,1,.43-2.78L111,113.7l-1.82,1a2.07,2.07,0,0,1-2.39-3.36L120.36,99.6,117.87,101a2.07,2.07,0,0,1-2.34-3.41l5.16-4.18a2.07,2.07,0,0,1-.58-3.22l6.22-6.93a1.73,1.73,0,0,1-.3-.41,2.07,2.07,0,0,1,.76-2.83l5.39-3.12a2.08,2.08,0,0,1,2.58,3.18l-2.85,3.17,4.64-2.67A2.07,2.07,0,0,1,138.89,84l-1.18,1a2.07,2.07,0,0,1,1.62,3.62l-13.55,11.79,10.74-6.2a2.07,2.07,0,0,1,2.29,3.44L127.89,106l8.3-4.79a2.07,2.07,0,0,1,2.25,3.47l-9.61,7,7.06-4.07a2.07,2.07,0,0,1,2.22,3.49l-9.37,6.58,6.86-4a2.07,2.07,0,0,1,2.22,3.5l-7.59,5.24,5.12-3a2.08,2.08,0,0,1,2.23,3.49l-7.65,5.39,5.14-3a2.08,2.08,0,0,1,2.28,3.46l-6.41,4.78,3.84-2.21a2.07,2.07,0,0,1,2.32,3.41l-2.77,2.2.59-.34A2.07,2.07,0,0,1,137.4,140l-6.05,6,12-6.92a2.08,2.08,0,0,1,2.39,3.37l-9.68,8.33L156.3,139a2.07,2.07,0,0,1,2.31,3.43l-16,12.41,22.94-13.24a2.08,2.08,0,0,1,2.25,3.48L151.39,157l11.42-6.59a2.07,2.07,0,0,1,2.28,3.45l-19.34,14.49,9-5.19a2.07,2.07,0,0,1,2.35,3.4l-19.72,16.15,7.88-4.56a2.07,2.07,0,0,1,2.4,3.36l-14.1,12.25,2.9-1.66a2.07,2.07,0,0,1,2.35,3.39l-5.67,4.67a2.09,2.09,0,0,1,.74,3.3l-6.34,7.09a1.83,1.83,0,0,1,.31.42,2.06,2.06,0,0,1-.76,2.82l-5.36,3.11a2.13,2.13,0,0,1-1,.28Z" fill="#ffc306"/><path d="M138.79,135.91c-2.18-4.34.78-16.9,1-21.6.41-8.55,1.66-17.54,1.21-26.08-.38-7.27-2.55-12.48-10.56-9.74-10.1,3.45-16.18,20.47-21.29,28.57L93.39,132c-2.21,3.49-8.27,9.95-9,14.16-2.55,15.76,20.69,3.4,27.74,8.11,11.95,8-12.17,64,9.22,61.88,10.57-1,17.83-20.65,22.29-27.7,8.29-13.13,22.6-28.65,26.6-43.8l0,0c0-.07.1-.14.07-.2-5.69-12.08-26.13,2.29-31.55-8.49Zm2.2,48.56c-4.54,7.19-8.81,17.39-14.8,23.42-4.12,4.15-4.71,7.41-7.42-1-2.08-6.49.83-18.25,1.16-25,.28-6.1,3.55-19.33,1.15-25-4.9-11.64-23,1.79-28.88-8.3-4.87-8.35,16-31.71,20.7-39.22,4.56-7.19,8.79-17.39,14.79-23.42,4.12-4.14,4.72-7.41,7.43,1,2.08,6.49-.83,18.25-1.16,25-.28,6.1-3.54,19.33-1.16,25,5.13,12.18,25.8-3,31.5,9-3.63,13.4-16,26.94-23.31,38.51Z" fill="#262626"/><path d="M48.5,19.44c-8.4,2.49-21.77,17.14-13.08,26a15.61,15.61,0,0,0,10.94,2.32q4.44,53.2,8.87,106.4,2.69,32.28,5.39,64.56c.83,10.06-.42,22.59,11,26.9,13.32,5,34.16.89,47.93.89,18.79,0,39.8,2.67,58.43,0,12-1.72,15.35-8.34,16.71-19.19,2.27-18,3-36.37,4.55-54.46q5.2-62.71,10.44-125.42c10.79-1.88,17.16-7.47,8.59-22a.89.89,0,0,0-.35-.62,1.4,1.4,0,0,0-.72-.54c-7.93-6.35-15.88-5.69-25.64-5.69H160.08c0-7.82.06-14.7-9.51-15.92a223.16,223.16,0,0,0-27.37,0c-6,0-13.3-1.06-19.16.87C96.31,6.06,96,11.9,96,18.57H77.84c-9.06,0-20.41-1.78-29.34.87Zm1.78,28.1,1-.08C50.81,48,50.35,47.82,50.28,47.54ZM192.53,180.9c-1.25,14.91,1.21,38.13-4.36,52.21-4.93,12.48-17.29,9.15-27.32,9.15H118.08c-18,0-45.84,7-50.67-15.49-4.54-21.06-3.73-44.75-5.52-66.19L54.6,73.06c-.56-6.7.83-17.84-2-23.86a6.19,6.19,0,0,1-.36-1.81l1.12-.1c.16.05.28.07.45.13,9.58,3.08,26.07,0,36,0h89.64a207.07,207.07,0,0,0,24.15.72ZM212.36,27.23c8.39,13.82,4.46,16.38-2.94,16.6a2.76,2.76,0,0,0-2.19-.64H49.51a3.79,3.79,0,0,0-2.28.83,20.55,20.55,0,0,1-2-.53c-10.6-4-1.07-17.65,7.21-21.25a35.64,35.64,0,0,1,10.91,0H173.4C185,22.24,202.67,18.91,212.36,27.23ZM102,17.45a12.41,12.41,0,0,1,1.75-9.31c2.86-4.54,1.78-2.56,6.07-3.17a147,147,0,0,1,19.69,0,112.85,112.85,0,0,1,16.65,0c7.91,1.25,8,7.47,7.94,13.6H102.16a4.21,4.21,0,0,0-.16-1.12Z" fill="#262626"/><path d="M87.94,174.68q1.95,22.81,3.91,45.63c.19,2.22,6.22.89,6-1.61L94,173.07c-.19-2.23-6.23-.89-6,1.61Z" fill="#262626"/><path d="M89,115,85.41,73.52c-.19-2.32-6.22-1-6,1.61L83,116.61C83.16,118.93,89.19,117.57,89,115Z" fill="#262626"/><path d="M161.37,182.4l-3.2,37.33c-.26,3.1,5.86,2.27,6.09-.46l3.2-37.33C167.73,178.85,161.61,179.68,161.37,182.4Z" fill="#262626"/><path d="M170.63,74.62q-1.77,20.73-3.55,41.47c-.25,2.84,5.85,1.86,6-.58q1.78-20.73,3.56-41.47C176.93,71.2,170.84,72.18,170.63,74.62Z" fill="#262626"/></svg>