<svg xmlns="http://www.w3.org/2000/svg" width="250" height="250" viewBox="0 0 250 250"><path d="M63.83,234.15a2.06,2.06,0,0,1-2.07-2.06,2.08,2.08,0,0,1,.92-1.73l54.17-35.93L55.72,229.72a2.07,2.07,0,0,1-2.17-3.52l54.57-36-52.4,30.26a2.07,2.07,0,0,1-2.16-3.53L93,191.4,55.72,212.9a2.07,2.07,0,0,1-2.15-3.53l30-19.32L55.72,206.16a2.07,2.07,0,0,1-2.13-3.54l3.77-2.37-1.51.87a2.07,2.07,0,0,1-2.18-3.51l45.89-30.83L57.55,191a2.06,2.06,0,0,1-2.15-3.52l18.93-12.15-14.24,8.23a2.07,2.07,0,0,1-2.18-3.52l34-22.47L66.55,172.22a2.07,2.07,0,0,1-2.15-3.53l17.87-11.58-1.21.69a2.06,2.06,0,0,1-2.15-3.52l14.27-9.18a2.07,2.07,0,0,1-1.28-2.63,2.12,2.12,0,0,1,.8-1l32.05-21.61-24.42,14.09a2.06,2.06,0,0,1-2.18-3.5L137,104.28,101.24,125a2.07,2.07,0,0,1-2.16-3.53L123,106l-22.62,13a2.07,2.07,0,0,1-2.14-3.53l11.21-7.11-10.61,6.12a2.07,2.07,0,0,1-2.19-3.5l48.42-32.66-50.5,29.11a2.07,2.07,0,0,1-2.13-3.54l10-6.29L91.32,104a2.07,2.07,0,0,1-2.14-3.54l6.57-4.11-7.91,4.55a2.07,2.07,0,0,1-2.15-3.53l28.92-18.44L83.38,97a2.07,2.07,0,0,1-2.14-3.54l21.09-13.27-23,13.26a2.07,2.07,0,0,1-2.14-3.54h0l28.56-18L75,89.61a2.07,2.07,0,0,1-2.18-3.51l51.68-34.32-55.39,32A2.07,2.07,0,0,1,67,80.23l43-28.61L64.66,77.79a2.07,2.07,0,0,1-2.15-3.53L85.05,59.67,61.9,73a2.07,2.07,0,0,1-2.2-3.5l35-24L58.92,66.19a2.07,2.07,0,1,1-2.19-3.51l19.94-13.4L57.24,60.5A2.07,2.07,0,0,1,55.07,57l4-2.64-2.76,1.58a2.06,2.06,0,0,1-2.23-3.47L69.86,41.32,55.8,49.43a2.07,2.07,0,0,1-2.36-3.37L71.57,30.9,55.72,40a2.07,2.07,0,0,1-2.43-3.31l8.9-8.07-6.47,3.72a2.07,2.07,0,0,1-2.67-3.05l3.92-5L55.73,25a2.07,2.07,0,0,1-3-2.46l.83-2.44a1.88,1.88,0,0,1-.67-.7,2.07,2.07,0,0,1,.75-2.82l2.07-1.19a2.06,2.06,0,0,1,3,2.46l-.27.82,5.69-3.27a2.07,2.07,0,0,1,2.67,3.06l-3.93,5,14-8.12a2.07,2.07,0,0,1,2.42,3.31l-8.89,8.06L90.14,15.39a2.07,2.07,0,0,1,2.36,3.38L74.41,33.92l32.11-18.54a2.06,2.06,0,0,1,2.23,3.47L93,30l25.36-14.64a2.07,2.07,0,0,1,2.17,3.52l-4,2.62,10.67-6.15a2.07,2.07,0,0,1,2.19,3.51l-20,13.38,29.3-16.91a2.06,2.06,0,0,1,2.2,3.49l-35,24,47.71-27.54a2.07,2.07,0,0,1,2.16,3.53l-22.5,14.55,31.34-18.09a2.07,2.07,0,0,1,2.17,3.51l-43,28.63L179.4,15.31a2.06,2.06,0,0,1,2.17,3.51L129.89,53.17l64.09-37a2.06,2.06,0,0,1,2.13,3.53l-28.56,18L194,22.49A2.06,2.06,0,0,1,196.11,26l-21,13.23L194,28.35a2.07,2.07,0,0,1,2.14,3.53L167.2,50.32,194,34.87a2.06,2.06,0,0,1,2.13,3.53l-6.56,4.11L194,40a2.06,2.06,0,0,1,2.13,3.53L186,49.84l7.9-4.55a2.06,2.06,0,0,1,2.18,3.5L147.7,81.47l45.1-26A2.07,2.07,0,0,1,194.94,59L183.83,66,191,61.88a2.07,2.07,0,0,1,2.16,3.52L169.26,80.89l18-10.4A2.07,2.07,0,0,1,189.47,74L150.6,100.13,174,86.6a2.07,2.07,0,0,1,2.19,3.5l-32,21.62,9-5.21a2.07,2.07,0,0,1,2.16,3.53l-4.62,3a2.07,2.07,0,0,1,1.38,3.79l-17.86,11.57,14.28-8.24a2,2,0,0,1,2.79.71,2.07,2.07,0,0,1-.61,2.81l-33.95,22.44,32-18.49a2.07,2.07,0,0,1,2.15,3.52l-18.9,12.13,18.08-10.44a2.07,2.07,0,0,1,2.19,3.51l-45.91,30.85,47.31-27.33a2.07,2.07,0,0,1,2.13,3.55l-3.83,2.4,4.4-2.54a2.07,2.07,0,0,1,2.15,3.53l-30,19.31,32.37-18.68a2.07,2.07,0,0,1,2.15,3.52l-39.38,25.51L166.06,152a2.07,2.07,0,0,1,2.17,3.51l-54.57,36,58.75-33.9a2.07,2.07,0,0,1,2.18,3.51L120.42,197l58.26-33.63a2.06,2.06,0,0,1,2.12,3.54l-2,1.27,2.76-1.59a2.07,2.07,0,0,1,2.15,3.54l-14.1,8.91,14.84-8.59a2.07,2.07,0,0,1,2.2,3.49l-42.16,28.76,44-25.37a2.06,2.06,0,0,1,2.16,3.51l-18.14,11.85,18.11-10.45a2.07,2.07,0,0,1,2.24,3.47L159.73,209.5l33.11-19.12a2.07,2.07,0,0,1,2.23,3.48l-19.69,13.93,18.42-10.63a2.07,2.07,0,0,1,2.22,3.48l-7.59,5.29,5.56-3.21a2.07,2.07,0,0,1,2.25,3.46L189.62,211l4.4-2.53a2.07,2.07,0,0,1,2.26,3.45L194.85,213a2.07,2.07,0,0,1,1.55,3.64l-1.84,1.52a2.07,2.07,0,0,1,2,3.44L195,223.24a2,2,0,0,1,1.42.45,2.09,2.09,0,0,1,.69,2.22l-.94,3a2.11,2.11,0,0,1,.77.77,2.07,2.07,0,0,1-.75,2.82l-2.07,1.2a2.07,2.07,0,0,1-3-2.4l.5-1.62-7,4a2.07,2.07,0,0,1-2.51-3.24l1-1.06-7.45,4.31a2.07,2.07,0,0,1-2.35-3.38l1.49-1.24-8,4.62a2.07,2.07,0,0,1-2.26-3.45l.24-.18-6.3,3.64a2.07,2.07,0,0,1-2.26-3.46l6.64-4.84-14.42,8.32a2.06,2.06,0,0,1-2.21-3.48l7.53-5.28-15.17,8.77a2.07,2.07,0,0,1-2.23-3.48l19.68-13.92-30.16,17.41a2.07,2.07,0,0,1-2.24-3.47l33.05-23.76-47.17,27.25a2.07,2.07,0,0,1-2.17-3.53l18.16-11.86L98.86,233.85a2.07,2.07,0,0,1-2.2-3.5l42.17-28.77L82.92,233.85a2.07,2.07,0,1,1-2.13-3.54l14.13-8.93L73.29,233.86a2.07,2.07,0,0,1-2.12-3.55h0l2-1.24-8.27,4.78a2,2,0,0,1-1,.3Z" fill="#d6e6e7"/><path d="M124.3,120.73a2.05,2.05,0,0,1-2.06-2.07,2,2,0,0,1,.37-1.18l5.62-8.08-6.5,3.75a2.07,2.07,0,0,1-2.34-3.39l19.15-15.48-21.45,12.4a2.07,2.07,0,0,1-2.19-3.5l7.55-5.1L113.91,103a2.06,2.06,0,0,1-2.22-3.47l25.91-18.2L109,97.87a2.07,2.07,0,0,1-2.16-3.52l7.62-5-9,5.16A2.07,2.07,0,0,1,103.24,91l32.21-22.27L99.75,89.38a2.07,2.07,0,0,1-2.19-3.5L122.1,69.34,94.85,85.06a2.07,2.07,0,0,1-2.17-3.51l11.8-7.82L90.9,81.59a2.07,2.07,0,0,1-2.27-3.45l28-20.84L84.46,75.84a2.07,2.07,0,0,1-2.29-3.43l22.24-17.1L79.25,69.83a2.06,2.06,0,0,1-2.31-3.41L92.65,54.05,75.77,63.81a2.07,2.07,0,0,1-2.28-3.44l5.41-4.1L74,59.1a2.07,2.07,0,0,1-2.54-3.2l8.65-9.25L72.4,51.1a2.07,2.07,0,0,1-2.93-2.6L72,42.66a2.1,2.1,0,0,1-2.32-1,2.06,2.06,0,0,1,.76-2.82h0l4.83-2.76a2.07,2.07,0,0,1,2.94,2.6l-2.45,5.72,14.4-8.32a2.07,2.07,0,0,1,2.54,3.2L84,48.51l21.54-12.4a2.06,2.06,0,0,1,2.28,3.43l-5.41,4.1,13-7.53a2.07,2.07,0,0,1,2.32,3.41L102.08,51.88l27.34-15.77a2.06,2.06,0,0,1,2.29,3.42l-22.23,17.1L145,36.11a2.07,2.07,0,0,1,2.27,3.44l-28,20.85,42.08-24.29a2.07,2.07,0,0,1,2.18,3.51l-11.8,7.8,19.6-11.31a2.07,2.07,0,0,1,2.19,3.5L149.07,56.15,177.4,39.79a2.07,2.07,0,0,1,2.21,3.49l-32.2,22.26,29.77-17.19a2.07,2.07,0,0,1,2.17,3.52l-7.6,5,4.3-2.48a2.07,2.07,0,0,1,2.22,3.48L152.35,76l18.84-10.88a2.07,2.07,0,0,1,2.19,3.5l-12.73,8.6a2,2,0,0,1,1.42.87,2.07,2.07,0,0,1-.41,2.78l-25.22,20.4a2.08,2.08,0,0,1,.48,2.86l-9.21,13.23a2.08,2.08,0,0,1-1,2.27l-1.39.79a2.1,2.1,0,0,1-1,.28Z" fill="#efac54"/><path d="M74.91,229.89a2.06,2.06,0,0,1-1.14-3.78l8.53-5.69L66.37,229.6a2.07,2.07,0,0,1-2.2-3.49l23.88-16.43-.87.5a2.05,2.05,0,0,1-2.82-.75,2.07,2.07,0,0,1,.51-2.67l28.4-22.17a2.06,2.06,0,0,1,.89-2.55l9.24-5.36a2.07,2.07,0,0,1,2.31,3.42l-15,11.7L131.12,180a2.07,2.07,0,0,1,2.2,3.5L109.41,200l26.92-15.55a2.07,2.07,0,0,1,2.18,3.51L130,193.65l10.25-5.91a2.07,2.07,0,0,1,2.29,3.43l-24.58,18.75,28.83-16.65a2.07,2.07,0,0,1,2.22,3.49l-7.59,5.31,9.38-5.41a2.07,2.07,0,0,1,2.37,3.36l-17.2,14.62,21.45-12.38a2.06,2.06,0,0,1,2.28,3.43l-5.08,3.86,6.79-3.92a2.07,2.07,0,0,1,2.51,3.24l-9.43,9.62,13.15-7.59a2.07,2.07,0,0,1,2.48,3.28l-3.56,3.43,5.38-3.09a2.07,2.07,0,0,1,2.79,2.87L171.89,222l5.24-3a2.07,2.07,0,0,1,2.83.75,2.3,2.3,0,0,1,.2.49l1.24,4.51,1.47-.87a2.06,2.06,0,1,1,2.22,3.48.6.6,0,0,1-.15.09l-3.84,2.22a2.08,2.08,0,0,1-2.83-.76,2.55,2.55,0,0,1-.2-.48l-1.24-4.52-10,5.75a2.07,2.07,0,0,1-2.79-2.87l2.81-4.54L154,229.63a2.07,2.07,0,0,1-2.48-3.28l3.56-3.43-11.62,6.68a2.07,2.07,0,0,1-2.51-3.23l9.43-9.62L128.09,229.6a2.07,2.07,0,0,1-2.29-3.43l5.09-3.86-12.64,7.29a2.07,2.07,0,0,1-2.37-3.36l17.2-14.62-31.15,18a2.07,2.07,0,0,1-2.22-3.48l7.61-5.31L92.08,229.6a2.07,2.07,0,0,1-2.29-3.43l24.58-18.74L75.94,229.6a2,2,0,0,1-1,.29Z" fill="#efac54"/><path d="M52.39,23.16a2.07,2.07,0,0,1-2.07-2.06,2.09,2.09,0,0,1,.74-1.59l1.24-1.05-6.84,4a2.07,2.07,0,0,1-2.6-3.14l5.68-6.61-5.23,3a2.07,2.07,0,0,1-2.84-2.79l1.8-3.25a2.06,2.06,0,0,1-.82-3.84L46.27,3a2.06,2.06,0,0,1,2.84,2.79L47.68,8.4,57,3a2.07,2.07,0,0,1,2.61,3.13l-5.69,6.61L70.8,3A2.07,2.07,0,0,1,73.16,6.4L71.9,7.46,79.58,3A2.07,2.07,0,0,1,82,6.34L78.55,9.43,89.68,3a2.06,2.06,0,0,1,2.81.8,2.08,2.08,0,0,1-.38,2.51l-3.8,3.47L100.07,3a2.07,2.07,0,0,1,2.46,3.31L98,10.63,111.17,3a2.07,2.07,0,0,1,2.41,3.31l-3.37,3,11-6.33a2.07,2.07,0,0,1,2.43,3.31l-3.82,3.49L131.62,3a2.07,2.07,0,0,1,2.44,3.31l-4.25,4L142.44,3A2.07,2.07,0,0,1,145,6.18L139,13,156.25,3a2.07,2.07,0,0,1,2.42,3.31l-3.76,3.42L166.61,3A2.06,2.06,0,0,1,169,6.37l-2.81,2.45L176.24,3a2.06,2.06,0,0,1,2.82.76,2.09,2.09,0,0,1-.19,2.34l-6.16,7.51L191.1,3a2.07,2.07,0,0,1,2.36,3.37l-1.27,1.07L199.88,3a2.07,2.07,0,0,1,2.68,3l-6.18,8.06,10-5.76a2.07,2.07,0,0,1,2.8,2.86l-2.48,4.1a2.07,2.07,0,0,1,1.74,3.73l-6.61,3.82a2.07,2.07,0,0,1-2.83-.76A2,2,0,0,1,199,20l2.45-4-12,6.91a2.07,2.07,0,0,1-2.68-3.05L193,11.77,173.73,22.88a2.07,2.07,0,0,1-2.36-3.37l1.28-1.08L165,22.88a2.07,2.07,0,0,1-2.63-3.11l6.16-7.51L150.07,22.88a2.07,2.07,0,0,1-2.4-3.35l2.81-2.44-10,5.79A2.07,2.07,0,0,1,138,19.57l3.75-3.43L130.1,22.88a2.07,2.07,0,0,1-2.58-3.16l6-6.77-17.24,9.93a2.07,2.07,0,0,1-2.45-3.31l4.27-4-12.64,7.31A2.07,2.07,0,0,1,103,19.57l3.83-3.5L95.08,22.88a2.07,2.07,0,0,1-2.42-3.31l3.37-3L85,22.88a2.07,2.07,0,0,1-2.83-.76,2.05,2.05,0,0,1,.37-2.53l4.54-4.32L73.92,22.88a2.07,2.07,0,0,1-2.43-3.31l3.8-3.47L63.53,22.88a2.07,2.07,0,0,1-2.41-3.31l3.45-3.1L53.43,22.88a2.1,2.1,0,0,1-1,.28Z" fill="#5b6a7c"/><path d="M75.54,246.43a2.06,2.06,0,0,1-1.34-3.63l2.19-1.89-9.1,5.24a2.07,2.07,0,0,1-2.6-3.13l6.09-7.1L53.06,246.14a2.06,2.06,0,0,1-2.37-3.35l1.93-1.66-7.5,4.33a2.06,2.06,0,0,1-2.6-3.13L48,235.87l-4.72,2.72a2.06,2.06,0,0,1-2.81-2.78l1.66-2.9a2.06,2.06,0,0,1-.69-3.82l4.8-2.77a2.06,2.06,0,0,1,2.82.76,2,2,0,0,1,0,2L47.9,231.2l8.48-4.9a2.06,2.06,0,0,1,2.6,3.13l-5.51,6.45,16.62-9.58a2.06,2.06,0,0,1,2.37,3.35l-1.94,1.66,8.68-5a2.07,2.07,0,0,1,2.61,3.13l-6.1,7.1L93.45,226.3a2.07,2.07,0,0,1,2.39,3.35l-2.2,1.89,9.1-5.24a2.07,2.07,0,0,1,2.55,3.19l-5.79,6.22,16.31-9.41a2.07,2.07,0,0,1,2.46,3.3l-4.36,4.1,12.81-7.39a2.07,2.07,0,0,1,2.56,3.18l-5.84,6.37L140,226.31a2.06,2.06,0,0,1,2.53,3.2l-5.67,6,16-9.25a2.06,2.06,0,0,1,2.6,3.13l-6.07,7L167,226.3a2.06,2.06,0,0,1,2.56,3.17l-5.9,6.51,16.79-9.68a2.06,2.06,0,0,1,2.44,3.3l-4,3.75,12.22-7a2.07,2.07,0,0,1,2.82.77,2,2,0,0,1-.16,2.29l-6.2,7.92,17.39-10a2.07,2.07,0,0,1,2.56,3.19l-5,5.43,3.87-2.22a2.07,2.07,0,0,1,2.65,3.07l-1.24,1.54a2.09,2.09,0,0,1,1.39,1,2.06,2.06,0,0,1-.75,2.82l-7.08,4a2.07,2.07,0,0,1-2.66-3.07l.37-.46-6.13,3.53a2.06,2.06,0,0,1-2.55-3.18l5-5.44-14.91,8.62a2.06,2.06,0,0,1-2.82-.76,2.09,2.09,0,0,1,.16-2.3l6.18-7.91-19,11a2.06,2.06,0,0,1-2.82-.76,2.1,2.1,0,0,1,.39-2.55l4-3.74-12.22,7a2.07,2.07,0,0,1-2.56-3.18l5.9-6.51-16.79,9.71a2.07,2.07,0,0,1-2.61-3.14l6.08-7-17.63,10.16a2.07,2.07,0,0,1-2.54-3.2l5.71-6.05-16,9.25a2.07,2.07,0,0,1-2.56-3.18l5.85-6.37-16.54,9.55a2.07,2.07,0,0,1-2.45-3.31l4.35-4.09-12.82,7.4A2.06,2.06,0,0,1,87.12,243l5.78-6.22-16.32,9.41a2,2,0,0,1-1,.29Z" fill="#5b6a7c"/><path d="M39.12,238.44c-5.49,18.08,141.42,4.58,162.54,8.23,14.21.05,12.48-25.36-3.51-20.89,8-63.91-28.46-56.48-45.42-98.66C156.54,83.61,208,91.48,198.16,23.4c10.73,2.2,14.91-7.88,12-16.95-9.48-8.88-27.62-1.68-40.1-3.9-41,.18-82.14-.26-123.15,0-13.48,1.65-9.41,25.22,4.6,20.84C43.28,86.68,80.18,80,97,122.05c-3.16,43.79-55.23,35.69-45.44,103.55C42.42,224.46,38,229.81,39.12,238.44ZM45.19,11.68C43.4.26,131.33,9.74,146,6.8c19,.15,38.23-.21,57.09,0,1.68.83,2.58,12,.58,12.29C185,15.23,35.13,28.15,45.19,11.68ZM60.35,185.2c5.51-16.54,18.87-26.41,31.32-37.51C134.05,99,42.24,93.44,57.53,23.47c44.89-.09,89.75.12,134.64,0,15.75,70.33-75,76-35.26,124.71,26.66,17.89,39.9,45.48,35.27,77.57h-3.83c-73.13-62.19-52.17-62.31-125.28-.13l-5.51-.09c-.13-13.28-1.45-27.68,2.79-40.36Zm119.9,40.58c-37.43-.05-74.86.07-112.29-.05C138.05,167.86,110.19,168.14,180.25,225.78ZM59.44,230.13c47.31.06,94.73-.1,142,0,4.19-1.86,4.07,11.62,2.25,12.18C185.15,238.49,34.9,251.25,45.19,235c-1.14-8.45,9.37-3.67,14.24-4.85Z" fill="#262626"/><path d="M121.81,121.15c-2.53,32.19,9,27.41,6-1.24,8.18-23.39,32.87-34.56,47.33-53.2,11.38-24.82,11.28-33.08-18.26-30.11-28.12,1-56.82-2.07-84.65,1-10.92,9.64.33,30,9.16,38.33,14.66,13.42,33.48,25.81,40.43,45.18ZM77.52,61c-10.45-32.62,0-19.91,24.28-22.11,16.25,2.66,65.47-5.63,73.8,3.77,2.79,34-36.85,44.77-50.34,71.07C114.73,91.82,89,82.09,77.52,61Z" fill="#262626"/><path d="M127.2,156.08c-4.67-2.17-7,4.18-4.7,7.3C127.16,165.55,129.49,159.2,127.2,156.08Z" fill="#262626"/></svg>