<svg xmlns="http://www.w3.org/2000/svg" width="100px" height="100px" viewBox="0 0 250 250" preserveAspectRatio="none"><path d="M121.15,210.2a2,2,0,0,1-1.07-3.66l5.77-3.68-11.09,6.4a2,2,0,0,1-2.1-3.37l43.72-29.39L103.6,207a2,2,0,0,1-2.08-3.38l44.12-28.8L95,204a2,2,0,0,1-2.71-.76,2,2,0,0,1,.67-2.65L102,195l-11.93,6.89A2,2,0,0,1,88,198.5l55-35.67L82.48,197.76a2,2,0,0,1-2-3.41l19.79-12.28-22.17,12.8a2,2,0,0,1-2-3.41L91.33,182l-17.19,9.92a2,2,0,0,1-2.06-3.4l46.21-29.12L69.5,187.58a2,2,0,0,1-2-3.4L111,156.86l-45.8,26.45a2,2,0,0,1-2.06-3.4l60.23-38.32L60.32,178a2,2,0,0,1-2.07-3.39l67.25-43.08-69.64,40.2a2,2,0,1,1-2-3.41h0l21.32-13.11L53.45,167.74a2,2,0,0,1-2.06-3.41l56.09-35.42-57,32.93a2,2,0,0,1-2.06-3.4l59.89-38-60.54,35a2,2,0,0,1-2-3.41l11.93-7.32-11.29,6.52a2,2,0,0,1-2-3.4l42.61-26.69-42.1,24.3a2,2,0,0,1-2-3.4l38.92-24.36-38,21.92a2,2,0,0,1-2.07-3.39l50.93-32.41L42.88,132.42A2,2,0,0,1,40.81,129L96.89,92.79,42.74,124a2,2,0,1,1-2.07-3.39L90.74,88.19,43.45,115.5a2,2,0,0,1-2.07-3.39L80.5,86.85,44.92,107.39a2,2,0,0,1-2.05-3.4l3.18-2a2,2,0,0,1-1.68-3.55L80.23,74.54,50.33,91.79a2,2,0,0,1-2.12-3.35l29.3-20.22L56.94,80.07a2,2,0,0,1-2.23-3.27L73.3,62a2,2,0,0,1-1.53-3.63L93.84,45.57a2,2,0,0,1,2.24,3.28L77.8,63.45l40.38-23.3a2,2,0,0,1,2.12,3.35L91,63.72l40.6-23.44a2,2,0,0,1,2.09,3.37L97.84,67.57,142.23,42a2,2,0,0,1,2,3.4l-1.88,1.2,5.43-3.14a2,2,0,0,1,2.07,3.39L110.78,72l44.83-25.89a2,2,0,0,1,2.07,3.39h0L107.57,82l55.79-32.19a2,2,0,1,1,2.08,3.39h0l-56,36.23,61.16-35.31a2,2,0,0,1,2.07,3.4L121.66,90l54.69-31.57a2,2,0,1,1,2.05,3.41l-39,24.36,41.09-23.72a2,2,0,0,1,2.05,3.4L140,92.47l44.75-25.83a2,2,0,1,1,2,3.42h0l-11.87,7.27,13-7.51a2,2,0,0,1,2,3.4l-59.94,38.05,62.16-35.88a2,2,0,0,1,2.06,3.4L138.21,114.2l57.62-33.26a2,2,0,0,1,2,3.41L176.56,97.47,198.09,85a2,2,0,0,1,2.07,3.39l-67.27,43.09L201.27,92a2,2,0,0,1,2.06,3.39l-60.2,38.29,60.55-35a2,2,0,0,1,2,3.41L162.16,129.5l43.07-24.87a2,2,0,0,1,2.05,3.4L161,137.18,206.41,111a2,2,0,0,1,2,3.41l-15.22,9.4,13.76-8a2,2,0,0,1,2,3.41h0l-19.87,12.32,18.11-10.46a2,2,0,0,1,2.08,3.39l-54.94,35.64,52.66-30.39a2,2,0,0,1,2,3.41L200,138.8l6.47-3.73a2,2,0,0,1,2.07,3.39l-44.11,28.8L204.73,144a2,2,0,0,1,2.1,3.37l-43.72,29.38,38-22a2,2,0,0,1,2.07,3.39l-5.78,3.69.59-.34a2,2,0,0,1,2.09,3.37l-15.5,10.34,7.91-4.56a2,2,0,0,1,2.11,3.37l-7.56,5.06a2,2,0,0,1,1.52,2.37,2,2,0,0,1-.94,1.29l-43.94,25.35a2,2,0,0,1-2.09-3.37l1.08-.73-9.89,5.71a2,2,0,0,1-2.09-3.37L146.22,196l-24.07,13.91a2,2,0,0,1-1,.27Z" fill="#e2eff7"/><path d="M197.67,194.88a2,2,0,0,1-1.16-3.6l8.29-6a2,2,0,0,1-.56-3.39l11.55-9.61-1.86,1.07a2,2,0,0,1-2.27-3.24l7.34-6.24-.82.47a2,2,0,0,1-2.31-3.2l6.5-5.76-1.24.71a2,2,0,0,1-2.28-3.23l3.25-2.78a2,2,0,0,1-1.59-3.4l6.41-6.21-2.52,1.45a2,2,0,0,1-2.42-3.1l6.68-6.91-3.35,1.94a2,2,0,0,1-2.44-3.08l6-6.36-3.29,1.9a2,2,0,0,1-2.52-3l7.08-8.56-5,2.86a2,2,0,0,1-2.46-3.06l4.72-5.16-3,1.75a2,2,0,0,1-2.58-2.91l6.3-8.35-5.37,3.1a2,2,0,0,1-2.52-3l4.66-5.57L221,96.71a2,2,0,0,1-2.57-2.93l5-6.55L218.57,90a2,2,0,0,1-2.39-3.12l1-1-.3.18A2,2,0,0,1,214.45,83l2.36-2.55-2,1.17a2,2,0,0,1-2.59-2.89l4.49-6.15-5.23,3a2,2,0,0,1-2.65-2.82l4.62-6.93-6,3.49a2,2,0,0,1-2.72-.72,2,2,0,0,1,.08-2.12L209,60.2l-6.73,3.89a2,2,0,0,1-2-3.44l14.28-8.24a2,2,0,0,1,2.71.72,2,2,0,0,1-.08,2.12l-4.28,6.27,5.87-3.39A2,2,0,0,1,221.45,61l-4.64,6.93,6-3.47a2,2,0,0,1,2.6,2.89l-4.49,6.15,5.23-3a2,2,0,0,1,2.45,3.08l-2.36,2.55,2.08-1.19A2,2,0,0,1,230.71,78l-1,1,.4-.22a2,2,0,0,1,2.57,2.93l-5,6.57,5-2.88a2,2,0,0,1,2.51,3L230.45,94l4.12-2.36a2,2,0,0,1,2.58,2.91l-6.29,8.35,5.7-3.29a2,2,0,0,1,2.46,3.05l-4.73,5.17,3.42-2a2,2,0,0,1,2.54,3l-7.08,8.56,5.49-3.18a2,2,0,0,1,2.43,3.08l-6,6.36,3.89-2.25a2,2,0,0,1,2.42,3.1l-6.72,6.92,4.16-2.39a2,2,0,0,1,2.39,3.15l-6.43,6.22,3.43-2a2,2,0,0,1,2.28,3.23l-2.69,2.3a2,2,0,0,1,1.93,3.37l-6.5,5.76,2.75-1.59a2,2,0,0,1,2.28,3.24L231,158.93l2.93-1.69a2,2,0,0,1,2.27,3.24l-11.55,9.62,5.91-3.39a2,2,0,0,1,2.15,3.33l-4.19,3a2,2,0,0,1,1.81,1,2,2,0,0,1-.72,2.71l-30.9,17.85a2.07,2.07,0,0,1-1,.26Z" fill="#c74c5e"/><path d="M61.28,179.82a2,2,0,0,1-1.11-3.64l16-10.73a2,2,0,0,1-1.79-3.52l15.77-10.54a2,2,0,0,1-1.71-3.52l36.47-25.63-12.69,7.33a2,2,0,0,1-2.14-3.35L146,101l-12.41,7.16a2,2,0,0,1-2.08-3.38L145,96a2,2,0,0,1-1.82-2.15,2,2,0,0,1,.83-1.45L174,71.1l-7.83,4.52a2,2,0,0,1-2.15-3.34l14-10a2,2,0,0,1-1.23-2.52,2,2,0,0,1,.55-.83l10-9.07a2,2,0,0,1-1.53-.59,2,2,0,0,1-.31-2.4l4.28-7.31-8.14,4.69a2,2,0,0,1-2.38-3.12l.44-.44-1.88,1.08A2,2,0,0,1,175.26,39l3.91-6.06-8.44,4.85a2,2,0,0,1-2.51-3l2.93-3.51-6.4,3.71a2,2,0,0,1-2.6-2.9l3.75-5.11L157,32.07a2,2,0,0,1-2.57-2.93l3.81-5-9.61,5.56A2,2,0,0,1,145.9,29a2,2,0,0,1,.17-2.23l4-4.93L139.31,28a2,2,0,0,1-2.71-.73,2,2,0,0,1,.2-2.26l4.2-5-12.42,7.17a2,2,0,0,1-2.71-.73,2,2,0,0,1,.13-2.19l5.17-6.85L112.82,28a2,2,0,0,1-2.43-3.1l5.87-6.08L90.47,33.7a2,2,0,0,1-2.13-3.35l.14-.09,38-22a2,2,0,0,1,2.43,3.1l-5.86,6.07,14.55-8.4A2,2,0,0,1,140.2,12L135,18.87l13.72-7.94a2,2,0,0,1,2.51,3l-4.21,5,10.09-5.82a2,2,0,0,1,2.55,3L155.76,21l9.14-5.28a2,2,0,0,1,2.57,2.93l-3.82,5,8.42-4.86a2,2,0,0,1,2.72.73,2,2,0,0,1-.11,2.15l-3.75,5.11,8-4.6a2,2,0,0,1,2.51,3l-2.93,3.5,5.82-3.35a2,2,0,0,1,2.7.75,2,2,0,0,1,0,2l-3.92,6,7.79-4.49a2,2,0,0,1,2.38,3.13l-.44.44,1.59-.92A2,2,0,0,1,197.06,35l-4.24,7.33,8.05-4.65a2,2,0,0,1,2.7.79,2,2,0,0,1-.37,2.39l-9.28,8.41,11.92-6.88A2,2,0,0,1,208,45.76l-8.32,5.94,9.68-5.56a2,2,0,0,1,2.14,3.34L181.44,70.73l14.13-8.14A2,2,0,0,1,197.66,66l-13.44,8.84a2,2,0,0,1,1,3.6L149.3,103.59l12.37-7.15a2,2,0,0,1,2.14,3.34l-36.5,25.65L140,118.09a2,2,0,0,1,2.09,3.37L126.35,132a2,2,0,0,1,1.68,3.55l-16,10.73a2,2,0,0,1,1.68,3.58l-51.42,29.7a1.8,1.8,0,0,1-1,.26Z" fill="#c74c5e"/><path d="M125.8,242a2,2,0,0,1-1.45-3.35l6.57-7-16.5,9.53a2,2,0,0,1-2.59-2.9l5.31-7.15-14.35,8.28a2,2,0,0,1-2.42-3.1l3.62-3.89-8.88,5.13a2,2,0,0,1-2.55-.48,2,2,0,0,1,.1-2.59l3.09-3.33-7.4,4.27a2,2,0,0,1-2.56-2.94l3.85-4.91-8.71,5a2,2,0,0,1-2.41-3.12L80,228l-4,2.3a2,2,0,0,1-2.65-2.83l3.94-5.84-8.43,4.87a2,2,0,0,1-2.72-.74,2,2,0,0,1,.12-2.15l3.61-5-7.13,4.1a2,2,0,0,1-2.52-3L63,216.47l-5.06,2.91a2,2,0,0,1-2.6-2.87l3.65-5.12-6.48,3.74a2,2,0,0,1-2.57-2.93L54.71,206l-7.6,4.37a2,2,0,0,1-2.22-3.28L51,202.3l-7.55,4.37a2,2,0,0,1-2.16-3.33L57.5,191.62,39.26,202.16a2,2,0,0,1-2.44-3.08L39.7,196l-3.77,2.17a2,2,0,0,1-2.42-3.1l1-1-1.19.68a2,2,0,0,1-2.66-2.8l4.56-7L29,188.51a2,2,0,0,1-2.38-3.14l.23-.23A2,2,0,0,1,24.5,182l1.19-1.24-1,.55a2,2,0,0,1-2.49-3l3.12-3.58-3.09,1.79a2,2,0,0,1-2.54-3l4.13-5-4.11,2.38A2,2,0,0,1,17.14,168l5.61-7.88L17,163.42a2,2,0,0,1-2.5-3L19,155.1l-3.89,2.24a2,2,0,0,1-2.48-3l4.49-5.08-3.51,2a2,2,0,0,1-2.38-3.14l2-2-.56.32a2,2,0,0,1-2.38-3.15l2.19-2.11-.56.32a2,2,0,0,1-2.5-3l6.88-8-5.14,3A2,2,0,0,1,8.66,133a2,2,0,0,1,.1-2.59l6.66-7.16L11,125.83a2,2,0,0,1-2.29-3.22l1.56-1.35a1.91,1.91,0,0,1-1.72-.8,2,2,0,0,1,.2-2.62l6.46-6.26-3.46,2a2,2,0,0,1-2.35-3.18l7.28-6.82-3.8,2.19a2,2,0,0,1-2.26-3.25l3-2.47a2,2,0,0,1-1.75-3.45l7.61-6.41L16.33,92a2,2,0,0,1-2.19-3.3l3.25-2.46a2,2,0,0,1-1.19-3.55L33.89,68.55l-10.38,6a2,2,0,0,1-2.07-3.39L46.17,55.31,28.69,65.4A2,2,0,0,1,26.57,62L58.7,40.12,39,51.46a2,2,0,0,1-2.15-3.33L54.27,35.6A2,2,0,0,1,53.14,33,2,2,0,0,1,54,32l26.17-15.1a2,2,0,0,1,2.16,3.33L71,28.44l31.39-18.13a2,2,0,0,1,2.12,3.36L72.37,35.6,119.54,8.37a2,2,0,0,1,2.07,3.39l-64.13,41a2,2,0,0,1-.55,2.41L39.22,69.37l1.84-1.06a2,2,0,0,1,2.19,3.3l-5.17,3.91a1.93,1.93,0,0,1,1.1.77A2,2,0,0,1,38.85,79l-7.6,6.46.89-.52a2,2,0,0,1,2.26,3.26l-3.81,3.13a2.35,2.35,0,0,1,1.63.8A2,2,0,0,1,32,94.71l-7.27,6.82,2.43-1.4a2,2,0,0,1,2.38,3.15l-6.46,6.26,2.54-1.47a2,2,0,0,1,2.3,3.22L26,112.94a2,2,0,0,1,1.41,3.35l-6.66,7.13,3.74-2.15a2,2,0,0,1,2.5,3l-6.89,8,4.53-2.61A2,2,0,0,1,27,132.81l-2.18,2.11.27-.16a2,2,0,0,1,2.39,3.14l-2,2,.32-.19a2,2,0,0,1,2.48,3l-4.52,5.07L27,145.9a2,2,0,0,1,2.5,3L25,154.21l3.66-2.11A2,2,0,0,1,31.28,155l-5.58,7.84,5.6-3.23a2,2,0,0,1,2.53,3l-4.12,5,4-2.33a2,2,0,0,1,2.52.46,2,2,0,0,1,0,2.57l-3.13,3.57,3.06-1.76a2,2,0,0,1,2.41,3.1l-1.21,1.25,1-.55a2,2,0,0,1,2.38,3.14l-.23.23a2,2,0,0,1,2.6,2.84l-4.57,7,6.28-3.62a2,2,0,0,1,2.42,3.1l-1,1L49.15,186A2,2,0,0,1,51.59,189l-2.88,3.12L89.66,168.5a2,2,0,0,1,2.16,3.33L74.14,184.54a2.09,2.09,0,0,1,1.84.87,2,2,0,0,1-.42,2.68l-12,9.43a2.16,2.16,0,0,1,.43.37,2,2,0,0,1,.08,2.52l-4.82,6.22,5.68-3.27a2,2,0,0,1,2.61,2.87l-3.66,5.11,6.88-4a2,2,0,0,1,2.51,3l-2.75,3.28L76,210.49a2,2,0,0,1,2.59,2.89l-3.62,5,7.75-4.48a2,2,0,0,1,2.65,2.83l-3.94,5.84,9.36-5.39a2,2,0,0,1,2.41,3.12l-1.43,1.44L96.47,219A2,2,0,0,1,99,221.91l-3.82,4.93,10-5.78a2,2,0,0,1,2.45,3.07l-3.09,3.32,8.94-5.17a2,2,0,0,1,2.45,3.08l-3.63,3.89,11.13-6.43a2,2,0,0,1,2.71.72,2,2,0,0,1-.12,2.19l-5.31,7.15,19.81-11.43a2,2,0,0,1,2.44,3.08l-6.59,7,86.81-50.11a2,2,0,0,1,2.1,3.37l-36.43,24.7,24.87-14.36a2,2,0,0,1,2.19,3.31l-21,15.76a2.1,2.1,0,0,1,1.79,1,2,2,0,0,1-.73,2.71L169.84,233a2,2,0,0,1-2.19-3.31l19.47-14.6-43.8,25.29a2,2,0,0,1-2.11-3.37l36.45-24.71-50.87,29.36A2,2,0,0,1,125.8,242Z" fill="#c74c5e"/><path d="M188.37,69.79C146.47,114,98.69,155,59.63,200.8c13.51,19.08,43.68,24.85,66.31,25.39,149.31-10.82,96.9-205.49,62.43-156.4Zm.34,5.72c57,73.89-39.39,174.18-113.41,113.42L132,132.21c14.84,11.35,23.7,5.82,3.77-3.77Zm16.61-4c59.25,86.61-51.89,196.71-136.58,132.21-6.83-4.74.11-7.62,3.1-11.35,77.75,59.21,183.87-42.92,120.81-120.81,6.14-6.57,7.28-10.49,12.67-.07Z" fill="#262626"/><path d="M163.53,14.36C-30.29-33.93-50,266.16,149.44,238.69,264.1,216.49,275.45,50,163.53,14.36Zm73.85,111.39C221.92,319.46-56,237.31,28.45,66.14,84.65-32.84,239.59,13.88,237.38,125.75Z" fill="#262626"/><path d="M63.61,177.72C102.66,138.63,142.14,99.25,181,60.31c19.87-13.75.29-20.1-12.76-27.12A104.72,104.72,0,0,0,66.38,43C-7.66,87.6,31.27,224.56,63.61,177.72Zm64.27-69.37c1.81-55.84-8.84-31.36-5.75,5.75L61.57,174.66C4,100.89,101.13,1.65,174.85,61.4ZM54.79,181.44c-2.12,2.14-4.93,7.58-6.91,1.63C5.05,128.92,38,40,106.51,28.56c12.91-7.55,97.76,10.57,72.07,29.08C100.32-3.69-5.91,100.5,57.5,178.73Z" fill="#262626"/><path d="M126.84,56.13c-1.56,0-4.23.35-4.71,2.06.33,1.42-.93,4.33,1,4.49,1.56,0,4.23-.35,4.72-2-.34-1.42.93-4.33-1-4.5Z" fill="#262626"/><path d="M80.24,76.35a3.76,3.76,0,0,0-5.33.16,2.63,2.63,0,0,0-.39.49C74.22,83.82,88.27,82.52,80.24,76.35Z" fill="#262626"/><path d="M62.47,123.06c-2.43.1-8.7-.82-7.67,3.13C57,128.58,68.68,125.85,62.47,123.06Z" fill="#262626"/><path d="M127.24,187c-4.58-2.35-6.69,4.22-4.47,7.2C127.35,196.51,129.47,189.93,127.24,187Z" fill="#262626"/><path d="M169.76,173.54c1.19,1.44,3.39.92,4.82.11C179.25,167.78,160.61,166.12,169.76,173.54Z" fill="#262626"/><path d="M187.4,126.4c2.3-.17,7.95.75,7.84-2.48C193.52,122.38,181.53,124.64,187.4,126.4Z" fill="#262626"/></svg>