<svg xmlns="http://www.w3.org/2000/svg" width="100px" height="100px" viewBox="0 0 250 250" preserveAspectRatio="none"><path d="M39.71,35.28a2.09,2.09,0,0,1-1.2-3.79l3.76-2.65-6.76,3.9a2.09,2.09,0,0,1-2.37-3.42L46.29,18.48,35.51,24.7a2.08,2.08,0,0,1-2.36-3.42L36,18.93l-.53.3a2.09,2.09,0,0,1-2.65-3.14l4-4.86a2.09,2.09,0,0,1-1-3.9l8.56-4.94a2.09,2.09,0,0,1,2.65,3.14L43.56,9.76,56.49,2.3a2.08,2.08,0,0,1,2.35,3.42L56,8.07,66,2.3a2.07,2.07,0,0,1,2.76.61,2.11,2.11,0,0,1-.39,2.8L55.18,16.56,79.89,2.3a2.08,2.08,0,0,1,2.24,3.51L78.38,8.46,89.06,2.3a2.08,2.08,0,0,1,2.3,3.47L80,14.37,99.78,2.93A2.09,2.09,0,0,1,102,6.44L97.28,9.83l7.16-4.13a2.09,2.09,0,0,1,2.41,3.39l-13,11.21L108,12.12a2.09,2.09,0,0,1,2.54,3.28l-8.09,8.18,5.88-3.39A2.09,2.09,0,0,1,111.23,23l-2.53,4.41a2.09,2.09,0,0,1,1.82,3.74l-6.43,3.72a2.09,2.09,0,0,1-2.86-2.85l2.51-4.37L91.21,34.92a2.09,2.09,0,0,1-2.53-3.27l8.08-8.19L76.86,35a2.09,2.09,0,0,1-2.41-3.39l13-11.21L62.1,35a2.09,2.09,0,0,1-2.26-3.51l4.74-3.38-12,6.9a2.08,2.08,0,0,1-2.3-3.47L61.73,22.9,40.76,35a2.06,2.06,0,0,1-1,.28Z" fill="#c7d2d6"/><path d="M68.26,223.05a2.09,2.09,0,0,1-1.14-3.84l1.39-.9-7.73,4.45a2.08,2.08,0,0,1-2.24-3.51l39-27.23L44.29,222.76a2.09,2.09,0,0,1-2.2-3.54l44.54-29.94-58,33.48a2.07,2.07,0,0,1-2.82-.71,2.11,2.11,0,0,1,.63-2.85l46.92-30.61L16.45,221.45a2.09,2.09,0,0,1-2.16-3.57l38.57-24.47-42,24.23a2.09,2.09,0,0,1-2.14-3.59L19,207.74,8.23,213.93a2.09,2.09,0,0,1-2.16-3.57L58,177.26,6.33,207.07a2.09,2.09,0,0,1-2.17-3.57l58.57-37.59L6.28,198.5a2.09,2.09,0,0,1-2.17-3.57L57.9,160.61,6.28,190.42a2.09,2.09,0,0,1-2.16-3.57l38.4-24.12L6.27,183.66a2.09,2.09,0,0,1-2.14-3.59l14.19-8.77-12,7a2.09,2.09,0,0,1-2.14-3.59l6.52-4-4.39,2.53a2.07,2.07,0,0,1-2.83-.72,2.09,2.09,0,0,1,.67-2.85l44.45-28.08L6.26,166a2.09,2.09,0,0,1-2.16-3.57L50.37,133.1,6.26,158.57A2.09,2.09,0,0,1,4.07,155L69.92,112.3,6.29,149.09a2.09,2.09,0,0,1-2.18-3.57l63.31-40.91L6.29,139.91a2.09,2.09,0,0,1-2.16-3.58l38.52-24.19-36.36,21a2.09,2.09,0,0,1-2.16-3.58L46.74,102.7,6.29,126.05a2.09,2.09,0,0,1-2.14-3.59l8.21-5.06-6.07,3.51a2.09,2.09,0,0,1-2.15-3.58l23-14.28-20.82,12a2.09,2.09,0,0,1-2.19-3.56L65.77,71.24,6.29,105.58A2.09,2.09,0,0,1,4.1,102L51.4,71.35,6.29,97.4a2.09,2.09,0,0,1-2.21-3.54L51.84,61.79,6.29,88.09a2.09,2.09,0,0,1-2.16-3.57L5.9,83.4a2.09,2.09,0,0,1-1.85-3.7l34.7-24.17L6.29,74.27A2.09,2.09,0,0,1,4,70.76L28.49,53.44,6.29,66.25a2.08,2.08,0,0,1-2.24-3.51L16.1,54.26,6.29,59.92A2.09,2.09,0,0,1,4.05,56.4L5.8,55.18A2.09,2.09,0,0,1,4,51.49L7.4,49l-1.11.63A2.07,2.07,0,0,1,3.52,49,2.09,2.09,0,0,1,4,46.16l1.88-1.48A2.09,2.09,0,0,1,4.1,41.12l4.13-4.07a2,2,0,0,1-1-.86A2.09,2.09,0,0,1,8,33.33L18,27.61a2.09,2.09,0,0,1,2.51,3.29l-1.72,1.68,9.09-5.24a2.09,2.09,0,0,1,2.34,3.44l-1,.8,7.36-4.25a2.09,2.09,0,0,1,2.28,3.49l-3.38,2.51,10.39-6a2.09,2.09,0,0,1,2.24,3.52L47,31.61l7.4-4.27a2.09,2.09,0,0,1,2.25,3.51L44.54,39.34l20.79-12a2.09,2.09,0,0,1,2.25,3.51L43.14,48.16,79.22,27.34a2.09,2.09,0,0,1,2.24,3.52L46.76,55l48-27.69a2.09,2.09,0,0,1,2.16,3.57l-.82.52,7.09-4.09a2.09,2.09,0,0,1,2.2,3.54L57.57,63l61.71-35.62a2.06,2.06,0,0,1,2.82.71,2.1,2.1,0,0,1-.64,2.85L74.18,61.57l55.23-31.89a2.07,2.07,0,0,1,2.82.71,2.09,2.09,0,0,1-.63,2.84L70,73.49l65.42-37.76a2.09,2.09,0,0,1,2.15,3.58l-23,14.28,22.62-13.05a2.09,2.09,0,0,1,2.14,3.58l-8.24,5.08,6.48-3.74A2.09,2.09,0,0,1,139.71,49L97.1,75.9l40.45-23.36a2.09,2.09,0,0,1,2.16,3.58L101.19,80.31l36.36-21a2.09,2.09,0,0,1,2.18,3.57L76.41,103.8l61.15-35.3a2.09,2.09,0,0,1,2.18,3.56L73.9,114.77,137.56,78a2.09,2.09,0,0,1,2.83.72,2.11,2.11,0,0,1-.67,2.85L93.44,110.87,137.56,85.4A2.08,2.08,0,0,1,139.71,89L95.26,117.05l42.3-24.42a2.08,2.08,0,0,1,2.84.74,2.1,2.1,0,0,1-.7,2.85l-6.52,4,4.38-2.53a2.09,2.09,0,0,1,2.15,3.59l-14.2,8.77,12.06-7a2.09,2.09,0,0,1,2.15,3.58l-38.34,24.08,36.19-20.89a2.09,2.09,0,0,1,2.16,3.57L85.94,147.76,137.57,118a2.09,2.09,0,0,1,2.17,3.56l-58.6,37.62,56.43-32.58a2.09,2.09,0,0,1,2.17,3.57l-51.88,33.1,49.71-28.71a2.09,2.09,0,0,1,2.14,3.59l-10.2,6.31,8.07-4.66a2.09,2.09,0,0,1,2.16,3.57L101.15,167.8l36.43-21a2.09,2.09,0,0,1,2.19,3.56L92.84,181l44.74-25.83a2.09,2.09,0,0,1,2.21,3.54L95.26,188.59l42.32-24.44a2.09,2.09,0,0,1,2.24,3.52l-39,27.23,36.75-21.22a2.09,2.09,0,0,1,2.18,3.56l-1.87,1.21a2.11,2.11,0,0,1,2.5.82,2.08,2.08,0,0,1-.53,2.82l-22.92,16.53,20.65-11.91a2.07,2.07,0,0,1,2.77.64,2.1,2.1,0,0,1-.45,2.82l-17.67,13.7L137.59,195a2.09,2.09,0,0,1,2.34,3.45l-8.07,6.37,5.73-3.31a2.09,2.09,0,0,1,2.37,3.42L137.43,207a2.09,2.09,0,0,1,1.58,3.83l-20.73,12a2.09,2.09,0,0,1-2.37-3.42l2.2-1.82L109,222.82a2.09,2.09,0,0,1-2.33-3.45l8.07-6.37-17,9.82a2.09,2.09,0,0,1-2.33-3.46l17.67-13.7L83.39,222.82a2.09,2.09,0,0,1-2.27-3.5L104,202.78l-34.7,20a2.09,2.09,0,0,1-1,.28Z" fill="#e0e6ea"/><path d="M36.19,202.17a2.09,2.09,0,0,1-1.26-3.75l6.29-4.78L27,201.88a2.09,2.09,0,0,1-2.46-3.34l13.07-12L23,194.92a2.09,2.09,0,0,1-2.59-3.22l7.17-7.81L23,186.53a2.07,2.07,0,0,1-2.49-.3,2.1,2.1,0,0,1-.39-2.49L22,180.17a2.11,2.11,0,0,1-1.67-1,2.08,2.08,0,0,1,.77-2.85l4.85-2.8a2.06,2.06,0,0,1,2.49.31,2.08,2.08,0,0,1,.39,2.48l-1.6,3,10-5.77a2.09,2.09,0,0,1,2.58,3.22l-7.17,7.82,19.12-11a2.09,2.09,0,0,1,2.46,3.34l-13.06,12L67.8,173.48a2.08,2.08,0,0,1,2.79.65,2.1,2.1,0,0,1-.48,2.82l-6.3,4.78,14.3-8.26a2.09,2.09,0,0,1,2.46,3.35l-13,12L94.1,173.47a2.09,2.09,0,0,1,2.47,3.33L83.35,189.17l27.2-15.7a2.09,2.09,0,0,1,2.46,3.35l-13.06,12,20.82-12a2.09,2.09,0,0,1,2.37,3.42l-6.62,5.46,4.33-2.5a2.08,2.08,0,0,1,2.72,3l-5.2,7.07,2.48-1.43a2.09,2.09,0,0,1,2.09,3.62l-11.1,6.4a2.06,2.06,0,0,1-2.6-.41,2.09,2.09,0,0,1-.13-2.63l5.2-7.06L96.8,201.88a2.08,2.08,0,0,1-2.37-3.41l6.64-5.47-15.4,8.88a2.05,2.05,0,0,1-2.72-.57,2.08,2.08,0,0,1,.27-2.77l13.06-12-26.6,15.35a2.09,2.09,0,0,1-2.47-3.33l13.22-12.36-27.2,15.69a2.05,2.05,0,0,1-2.72-.57,2.09,2.09,0,0,1,.26-2.77l13.06-12L37.24,201.88a2,2,0,0,1-1,.28Z" fill="#dd506b"/><path d="M109.37,248.1a2.09,2.09,0,0,1-1.12-3.85l18.24-11.54-26.18,15.11a2.09,2.09,0,0,1-2.15-3.59l7.3-4.54-14.07,8.12a2.09,2.09,0,0,1-2.16-3.57l30.18-19.07L80.19,247.81A2.09,2.09,0,0,1,78,244.23L108.73,225,71.19,246.65a2.09,2.09,0,0,1-2.14-3.59L92,228.8l-25,14.41a2.06,2.06,0,0,1-2.83-.72,2.09,2.09,0,0,1,.66-2.84l54.06-34.49L64.76,236.44a2.09,2.09,0,0,1-2.19-3.55L127.08,191l-56.3,32.5a2.09,2.09,0,0,1-2.14-3.59l7.57-4.68-.34.19a2.09,2.09,0,0,1-2.16-3.58L90.1,201.61l-8.66,5A2.09,2.09,0,0,1,79.27,203L107,185.35l-19.12,11a2.09,2.09,0,0,1-2.16-3.57l16.68-10.62-8.76,5.06a2.09,2.09,0,0,1-2.17-3.57l10.29-6.57L99,178.69a2.09,2.09,0,0,1-2.19-3.56l17.5-11.42L105.11,169a2.09,2.09,0,0,1-2.2-3.55l11-7.24-3.21,1.85a2.08,2.08,0,0,1-2.27-3.49L138.35,135l-18.53,10.69a2.08,2.08,0,0,1-2.24-3.51l12.17-8.55-3.65,2.11a2.09,2.09,0,0,1-2.29-3.48l12-8.9-3,1.74a2.09,2.09,0,0,1-2.38-3.41l11.84-9.92-1.66,1a2.09,2.09,0,0,1-2.53-3.27l6.85-7a2,2,0,0,1-.68-.72,2.07,2.07,0,0,1,.76-2.85l8.17-4.72a2.09,2.09,0,0,1,2.54,3.27l-3.88,3.94,9.09-5.24a2.08,2.08,0,0,1,2.38,3.4l-11.83,9.92,13.9-8a2.09,2.09,0,0,1,2.29,3.49l-12,8.88,12.83-7.4a2.08,2.08,0,0,1,2.24,3.51l-12.2,8.57,12.89-7.43a2.08,2.08,0,0,1,2.27,3.49l-29.86,21.61,31.83-18.38a2.09,2.09,0,0,1,2.19,3.55l-11.1,7.28L178.3,122a2.07,2.07,0,0,1,2.82.71,2.1,2.1,0,0,1-.63,2.85L163,136.92l18.11-10.45A2.09,2.09,0,0,1,183.3,130L173,136.6l10.64-6.14a2.09,2.09,0,0,1,2.17,3.57l-16.73,10.65,17.25-10a2.09,2.09,0,0,1,2.17,3.57L160.82,156l28.53-16.47a2.09,2.09,0,0,1,2.15,3.58l-16.42,10.27,16.86-9.73a2.09,2.09,0,0,1,2.15,3.58l-7.62,4.72,7.85-4.53a2.09,2.09,0,0,1,2.18,3.56L132,192.79l66.66-38.49a2.09,2.09,0,0,1,2.16,3.57l-54,34.47,55.62-32.1a2.09,2.09,0,0,1,2.14,3.58l-23,14.31,23.58-13.62a2.09,2.09,0,0,1,2.15,3.58l-30.73,19.28,31.52-18.19a2.09,2.09,0,0,1,2.16,3.57L180,191.81l31-17.89a2.07,2.07,0,0,1,2.83.73,2.1,2.1,0,0,1-.68,2.85L206,182l7.48-4.32a2.09,2.09,0,0,1,2.16,3.58l-18.27,11.56L216.13,182a2.09,2.09,0,0,1,2.16,3.58l-8.21,5.17,8.48-4.89a2.09,2.09,0,0,1,2.16,3.57l-9.81,6.24,10.14-5.85a2.09,2.09,0,0,1,2.22,3.53l-32.59,22.11,34.12-19.7a2.07,2.07,0,0,1,2.82.71,2.1,2.1,0,0,1-.63,2.85l-9.94,6.47,10.32-5.95a2.09,2.09,0,0,1,2.23,3.52l-22.88,15.9,24.12-13.92a2.09,2.09,0,0,1,2.29,3.48L209.61,226.3l25.26-14.59a2.1,2.1,0,0,1,2.8.67,2.07,2.07,0,0,1-.52,2.82L224,224.83l14-8.11a2.09,2.09,0,0,1,2.28,3.49l-7.23,5.33,7.71-4.45a2.09,2.09,0,0,1,2.28,3.5l-.1.07.05,0a2.09,2.09,0,0,1,2.39,3.41l-5.1,4.27,5.23-3a2.07,2.07,0,0,1,2.74.6,2.1,2.1,0,0,1-.33,2.79l-1.24,1.07a2.14,2.14,0,0,1,2.18,1,2.08,2.08,0,0,1-.77,2.85l-17.69,10.22a2.09,2.09,0,0,1-2.42-3.39l.76-.65-7,4a2.09,2.09,0,0,1-2.38-3.41l5.09-4.28-13.31,7.69a2.09,2.09,0,0,1-2.27-3.5l.1-.07-6.18,3.56a2.09,2.09,0,0,1-2.29-3.48l7.24-5.34-15.28,8.82a2.09,2.09,0,0,1-2.28-3.49l13.15-9.61-22.7,13.1a2.07,2.07,0,0,1-2.79-.66,2.1,2.1,0,0,1,.5-2.82l23.53-17.52-36.38,21a2.09,2.09,0,0,1-2.23-3.52l22.89-15.9-33.64,19.42a2.09,2.09,0,0,1-2.19-3.56l9.9-6.46-17.34,10a2.09,2.09,0,0,1-2.22-3.53l32.6-22.11-44.43,25.64a2.09,2.09,0,0,1-2.16-3.57l9.77-6.21-17,9.78a2.09,2.09,0,0,1-2.16-3.57l8.25-5.2-15.2,8.77a2,2,0,0,1-1,.28Z" fill="#e29142"/><path d="M158.35,198a2.09,2.09,0,0,1-1.74-3.24l.48-.73-5.93,3.42a2.09,2.09,0,0,1-2.47-3.33l.46-.43-.86.5a2.09,2.09,0,0,1-2.5-3.3l4.86-4.77-2.55,1.48a2.1,2.1,0,0,1-2.69-.52,2.08,2.08,0,0,1,.14-2.73l6.71-7L148,179.85a2.07,2.07,0,0,1-2.72-.57,2.1,2.1,0,0,1,.27-2.78l3.1-2.85-.73.43a2.1,2.1,0,0,1-2.7-.53,2.08,2.08,0,0,1,.17-2.74l6.45-6.52-4,2.32a2.09,2.09,0,0,1-2.43-3.37l2.13-1.89a2.08,2.08,0,0,1-2.25-3.43l5-4.75-2.6,1.5a2.09,2.09,0,0,1-2.51-3.29l5.81-5.76-3.39,2a2.08,2.08,0,0,1-3-2.62l2.79-6.54a2.09,2.09,0,0,1-1.74-3.78l5.06-2.91a2.07,2.07,0,0,1,2.43.24,2.09,2.09,0,0,1,.53,2.38l-2.77,6.49L162.81,134a2.09,2.09,0,0,1,2.51,3.29L159.51,143l3.84-2.21a2.08,2.08,0,0,1,2.48,3.31l-5,4.75,2.41-1.39a2.06,2.06,0,0,1,2.73.59,2.09,2.09,0,0,1-.3,2.78l-2.19,1.94a2.08,2.08,0,0,1,2.21,3.42l-6.43,6.51,3.79-2.19a2.09,2.09,0,0,1,2.46,3.35l-3.12,2.85.58-.33a2.09,2.09,0,0,1,2.56,3.25l-6.71,7,4-2.34a2.09,2.09,0,0,1,2.5,3.3l-4.87,4.77,2.27-1.31a2.09,2.09,0,0,1,2.47,3.33l-1.44,1.35a2.12,2.12,0,0,1,1.47.65,2.09,2.09,0,0,1,.21,2.59L164.11,191a2.09,2.09,0,0,1,.36,3.78l-5.07,2.93a2.09,2.09,0,0,1-1.05.28Z" fill="#fff"/><path d="M155.51,231.39a2.07,2.07,0,0,1-1.81-3.12l3.19-5.54-7.5,4.32a2.06,2.06,0,0,1-2.51-.32,2.09,2.09,0,0,1-.35-2.51l3.22-5.73-.32.18a2.09,2.09,0,0,1-2.09-3.62l6.92-4a2.08,2.08,0,0,1,2.86,2.83l-3.22,5.74,7.62-4.4a2.09,2.09,0,0,1,2.85,2.85l-3.18,5.54.23-.14a2.09,2.09,0,1,1,2.09,3.62l-6.95,4A2.08,2.08,0,0,1,155.51,231.39Z" fill="#fff"/><path d="M15.45,222c16.69,2.1,34-.05,50.78.66-20.85,30.72,22.21,24.88,40.44,25H234.38c43.56-4-24.74-72-31.2-91.95-15.42-15.44-34.91-85.08-61.43-52.73-3.68-26.61,15.14-81.88-29.2-75.73,3.19-18.34-7-27.95-25.16-24.79-21.1,1.62-62.1-9.58-56.06,25-34-5.65-30,30.07-29.23,53C6.54,105.51-10,221.64,15.45,222ZM146.77,103.71c15-21.44,28.8,24.82,37.88,33.84,19,30.65,38.85,60.8,57.69,91.52,2.93,5.12,2.44,15.1-5.51,15.53H134.52c-17.33-3.36-58.49,8.18-67.39-7.4-1.82-5.77,2-10.26,4.81-14.79ZM25.39,176.8c23.08-.06,46.55,0,69.77,0L81.44,198.57c-18.32-1.13-38.3,2.17-55.88-1.08-1.45-6.08-1.13-14.78-.17-20.68ZM42.93,6.06C56,4.5,69.7,6,83,5.48c17-2.74,26.13,3.58,23.56,21.69-23.06-.24-46.14.14-69.18.22-.14-6.9-1.77-17.83,5.58-21.32ZM8.14,45C3.93,18.35,96.88,35,117.38,30.63c32.72-.62,13.47,60.14,18.32,81.86q-19.23,30.53-38.47,61c-25,2.67-57.76-4.16-76.83.82,0,0-5.7,28.13,6.38,27.52H79.37q-5.57,8.8-11.12,17.63c-18.81-3.61-56.53,11.35-60.11-15.91q0-79.31,0-158.62Z" fill="#262626"/><path d="M144,191.48c.49,10.13,22,9.28,22.94-.28.08-17.76.9-35.56.75-53.32-.17-7.91-9.26-6.56-14.73-6.56-19.17.73-5.65,45.93-9,60.16Zm5.43-54.55c.79-2.7,12.67-2.49,12.15,1.42-1.24,18,1.59,38.49-1.93,55.6-3.29-.11-9.38,1.66-9.54-3.33C149.91,172.77,149.28,154.66,149.38,136.93Z" fill="#262626"/><path d="M160,211.47c-17.22-5.92-22.43,22.78-3,19.55C167.39,229.89,170.74,214.92,160,211.47Zm.39,12.21c-.47,1.67-1,3.82-5,3.82-6.12,0-7.32-11.2-1.38-12.91l0,0C158.5,214.27,161.81,219.56,160.43,223.68Z" fill="#262626"/><path d="M154,214.61l-.17,0C153.64,214.72,153.78,214.78,154,214.61Z" fill="#262626"/></svg>